# xmcd CD Database Entry
#
# Track frame offsets:
# 150
# 79357
# 126681
# 168996
# 245031
# 285605
#
# Disc length: 4366 seconds
#
# Revision: 1
# Processed by: cddbd v1.5PL3 Copyright (c) Steve Scherf et al.
# Submitted via: tcd 2.0b
#
DISCID=59110c06
DTITLE=Beethoven - Piano Concertos 1 and 3
DYEAR=1900
DGENRE=
TTITLE0=I. Allegro con brio 
TTITLE1=II. Largo
TTITLE2=III Rondo - Allegro scherzando
TTITLE3=I Allegro con brio
TTITLE4=II Largo
TTITLE5=III Rondo - Allegro
EXTD=Piano Concerto No. 1, opus 15 Cmajor\n\t: Trk 1,2,3\nPiano Co
EXTD=ncerto No. 3, opus 37 Cminor\n\t: Trk 4,5,6\n Richard Cass, p
EXTD=iano\n Czech National Symphony\n Paul Freeman, musical direct
EXTD=or\n
EXTT0=
EXTT1=
EXTT2=
EXTT3=
EXTT4=
EXTT5=
PLAYORDER=
